<svg xmlns="http://www.w3.org/2000/svg" width="18" height="15" viewBox="0 0 18 15" fill="none"><path d="M17.2695 3.51875L17.4758 4.4375C17.507 4.57688 17.507 4.715 17.4808 4.845C17.5044 4.93731 17.5066 5.03381 17.4872 5.12711C17.4679 5.2204 17.4274 5.30804 17.369 5.3833C17.3105 5.45857 17.2356 5.51947 17.1501 5.56137C17.0645 5.60326 16.9704 5.62502 16.8752 5.625H15.4658L14.5389 4.38937V4.38812C14.3906 4.18969 14.198 4.02865 13.9764 3.91786C13.7548 3.80707 13.5104 3.74959 13.2626 3.75H13.1252V2.69375C13.1252 2.2425 12.7577 1.875 12.3064 1.875H11.4439C10.9927 1.875 10.6252 2.2425 10.6252 2.69375V3.74375H6.87515V2.69375C6.87515 2.2425 6.50765 1.875 6.0564 1.875H5.1939C4.74265 1.875 4.37515 2.2425 4.37515 2.69375V3.75H4.23765C3.73265 3.75 3.26077 3.98812 2.9564 4.39375L2.0339 5.625H0.62515C0.52986 5.62502 0.435827 5.60326 0.350239 5.56137C0.264651 5.51947 0.189775 5.45857 0.131336 5.3833C0.0728959 5.30804 0.0324402 5.2204 0.0130612 5.12711C-0.00631783 5.03381 -0.00410688 4.93731 0.019525 4.845C-0.00783639 4.71036 -0.00613163 4.57143 0.0245251 4.4375L0.224525 3.51875C0.447328 2.52104 1.00324 1.62895 1.80073 0.989369C2.59823 0.349786 3.58974 0.000843649 4.61202 0H12.8883C13.9101 9.94699e-05 14.9012 0.348893 15.6978 0.988714C16.4945 1.62854 17.0489 2.52107 17.2695 3.51875Z" fill="#FE0100"></path><path d="M14.0377 4.7625L16.3252 7.8125C17.088 8.82701 17.5004 10.062 17.5002 11.3312V13.4C17.5002 13.9375 17.0627 14.375 16.5252 14.375H0.975244C0.437744 14.375 0.000244141 13.9375 0.000244141 13.4V11.3312C0.000244141 10.0625 0.412744 8.825 1.17524 7.8125L3.45649 4.76875C3.64399 4.51875 3.93149 4.375 4.23774 4.375H4.80649C4.91274 4.375 5.00024 4.2875 5.00024 4.18125V2.69375C5.00024 2.5875 5.08774 2.5 5.19399 2.5H6.05649C6.16274 2.5 6.25024 2.5875 6.25024 2.69375V4.18125C6.25024 4.2875 6.33774 4.375 6.44399 4.375H11.0565C11.1627 4.375 11.2502 4.2875 11.2502 4.18125V2.69375C11.2502 2.5875 11.3377 2.5 11.444 2.5H12.3065C12.4127 2.5 12.5002 2.5875 12.5002 2.69375V4.18125C12.5002 4.2875 12.5877 4.375 12.694 4.375H13.2627C13.569 4.375 13.8565 4.51875 14.0377 4.7625ZM7.31149 7.5C7.41774 7.5 7.50587 7.4125 7.49962 7.305V6.445C7.49945 6.39344 7.47894 6.34403 7.44254 6.30751C7.40615 6.271 7.3568 6.25033 7.30524 6.25H6.44462C6.33837 6.25 6.25024 6.3375 6.25024 6.445V7.305C6.25024 7.41187 6.33774 7.5 6.45149 7.5H7.31149ZM9.18649 7.5C9.21187 7.50019 9.23701 7.49523 9.26041 7.48541C9.28381 7.4756 9.30497 7.46114 9.32262 7.44291C9.34026 7.42468 9.35403 7.40306 9.36307 7.37935C9.37212 7.35565 9.37626 7.33035 9.37524 7.305V6.445C9.37492 6.39338 9.35427 6.34398 9.31777 6.30748C9.28127 6.27098 9.23186 6.25033 9.18024 6.25H8.32024C8.26858 6.25016 8.21907 6.27076 8.18254 6.3073C8.14601 6.34383 8.12541 6.39333 8.12524 6.445V7.305C8.12524 7.41187 8.21274 7.5 8.32649 7.5H9.18649ZM10.2009 7.5H11.0615C11.0869 7.50019 11.112 7.49523 11.1354 7.48541C11.1588 7.4756 11.18 7.46114 11.1976 7.44291C11.2153 7.42468 11.229 7.40306 11.2381 7.37935C11.2471 7.35565 11.2513 7.33035 11.2502 7.305V6.445C11.2499 6.39338 11.2293 6.34398 11.1928 6.30748C11.1563 6.27098 11.1069 6.25033 11.0552 6.25H10.1946C10.0884 6.25 10.0002 6.3375 10.0002 6.445V7.305C10.0002 7.41187 10.0877 7.5 10.2015 7.5H10.2009ZM7.31149 9.375C7.41774 9.375 7.50587 9.2875 7.49962 9.18V8.32C7.49945 8.26844 7.47894 8.21903 7.44254 8.18252C7.40615 8.146 7.3568 8.12533 7.30524 8.125H6.44462C6.33837 8.125 6.25024 8.2125 6.25024 8.32V9.18C6.25024 9.28687 6.33774 9.375 6.45149 9.375H7.31149ZM8.32587 9.375H9.18649C9.21187 9.37519 9.23701 9.37023 9.26041 9.36041C9.28381 9.3506 9.30497 9.33614 9.32262 9.31791C9.34026 9.29968 9.35403 9.27806 9.36307 9.25435C9.37212 9.23065 9.37626 9.20535 9.37524 9.18V8.32C9.37492 8.26838 9.35427 8.21898 9.31777 8.18248C9.28127 8.14598 9.23186 8.12533 9.18024 8.125H8.32024C8.26858 8.12516 8.21907 8.14576 8.18254 8.1823C8.14601 8.21883 8.12541 8.26833 8.12524 8.32V9.18C8.12524 9.28687 8.21274 9.375 8.32649 9.375H8.32587ZM11.0615 9.375C11.0869 9.37519 11.112 9.37023 11.1354 9.36041C11.1588 9.3506 11.18 9.33614 11.1976 9.31791C11.2153 9.29968 11.229 9.27806 11.2381 9.25435C11.2471 9.23065 11.2513 9.20535 11.2502 9.18V8.32C11.2499 8.26838 11.2293 8.21898 11.1928 8.18248C11.1563 8.14598 11.1069 8.12533 11.0552 8.125H10.1946C10.0884 8.125 10.0002 8.2125 10.0002 8.32V9.18C10.0002 9.28687 10.0877 9.375 10.2015 9.375H11.0615ZM6.45087 11.25H7.31149C7.41774 11.25 7.50587 11.1625 7.49962 11.055V10.195C7.49945 10.1434 7.47894 10.094 7.44254 10.0575C7.40615 10.021 7.3568 10.0003 7.30524 10H6.44462C6.33837 10 6.25024 10.0875 6.25024 10.195V11.055C6.25024 11.1619 6.33774 11.25 6.45149 11.25H6.45087ZM9.18649 11.25C9.21187 11.2502 9.23701 11.2452 9.26041 11.2354C9.28381 11.2256 9.30497 11.2111 9.32262 11.1929C9.34026 11.1747 9.35403 11.1531 9.36307 11.1294C9.37212 11.1056 9.37626 11.0804 9.37524 11.055V10.195C9.37492 10.1434 9.35427 10.094 9.31777 10.0575C9.28127 10.021 9.23186 10.0003 9.18024 10H8.32024C8.26858 10.0002 8.21907 10.0208 8.18254 10.0573C8.14601 10.0938 8.12541 10.1433 8.12524 10.195V11.055C8.12524 11.1619 8.21274 11.25 8.32649 11.25H9.18649ZM10.2009 11.25H11.0615C11.0869 11.2502 11.112 11.2452 11.1354 11.2354C11.1588 11.2256 11.18 11.2111 11.1976 11.1929C11.2153 11.1747 11.229 11.1531 11.2381 11.1294C11.2471 11.1056 11.2513 11.0804 11.2502 11.055V10.195C11.2499 10.1434 11.2293 10.094 11.1928 10.0575C11.1563 10.021 11.1069 10.0003 11.0552 10H10.1946C10.0884 10 10.0002 10.0875 10.0002 10.195V11.055C10.0002 11.1619 10.0877 11.25 10.2015 11.25H10.2009Z" fill="#FE0100"></path></svg>