<svg xmlns="http://www.w3.org/2000/svg" width="15" height="15" viewBox="0 0 15 15" fill="none"><path d="M14.5245 10.9574L12.441 8.87383C11.6968 8.12969 10.4318 8.42738 10.1341 9.39472C9.91089 10.0645 9.16675 10.4365 8.49703 10.2877C7.00876 9.91562 4.99959 7.98087 4.62752 6.41818C4.40428 5.74843 4.85076 5.00429 5.52048 4.78108C6.48786 4.48342 6.78552 3.21839 6.04138 2.47425L3.9578 0.390672C3.36249 -0.130224 2.46952 -0.130224 1.94863 0.390672L0.534769 1.80453C-0.879091 3.2928 0.683596 7.23673 4.18104 10.7342C7.67848 14.2316 11.6224 15.8687 13.1107 14.3804L14.5245 12.9666C15.0455 12.3713 15.0455 11.4783 14.5245 10.9574Z" fill="#FE0100"></path></svg>