<svg xmlns="http://www.w3.org/2000/svg" width="24" height="21" viewBox="0 0 24 21" fill="none"><path d="M6.77 0C6.50049 8.52811e-05 6.23579 0.0700538 6.00272 0.202816C5.76965 0.335579 5.57649 0.526419 5.44281 0.756L0.201337 9.756C0.0693976 9.9826 0 10.239 0 10.5C0 10.761 0.0693976 11.0174 0.201337 11.244L5.44281 20.244C5.57649 20.4736 5.76965 20.6644 6.00272 20.7972C6.23579 20.9299 6.50049 20.9999 6.77 21H17.2285C17.498 20.9999 17.7627 20.9299 17.9958 20.7972C18.2288 20.6644 18.422 20.4736 18.5557 20.244L23.7987 11.244C23.9306 11.0174 24 10.761 24 10.5C24 10.239 23.9306 9.9826 23.7987 9.756L18.5557 0.756C18.422 0.526419 18.2288 0.335579 17.9958 0.202816C17.7627 0.0700538 17.498 8.52811e-05 17.2285 0H6.77ZM14.4426 14.544C13.9207 14.8441 13.3435 15.04 12.7441 15.1204C12.1448 15.2008 11.5351 15.1641 10.9503 15.0124C10.3654 14.8608 9.81694 14.5971 9.33639 14.2366C8.85585 13.8761 8.45273 13.4259 8.15026 12.912C7.84778 12.398 7.65191 11.8305 7.57394 11.242C7.49597 10.6534 7.53742 10.0556 7.69592 9.48289C7.85442 8.91016 8.12684 8.37384 8.49748 7.90482C8.86812 7.43579 9.32967 7.04332 9.85555 6.75C10.9085 6.16267 12.1556 6.00778 13.3246 6.31913C14.4936 6.63048 15.4895 7.38278 16.0952 8.41188C16.7009 9.44097 16.867 10.6633 16.5574 11.8121C16.2478 12.961 15.4876 13.943 14.4426 14.544Z" fill="#FE0100"></path></svg>